<svg width="337" height="337" xmlns="http://www.w3.org/2000/svg" xmlns:xlink="http://www.w3.org/1999/xlink" xml:space="preserve" overflow="hidden"><defs><clipPath id="clip0"><rect x="869" y="176" width="337" height="337"/></clipPath></defs><g clip-path="url(#clip0)" transform="translate(-869 -176)"><path d="M967.994 414.006C967.292 415.059 966.59 416.464 966.59 418.219 966.59 422.08 969.749 425.24 973.61 425.24 976.068 425.24 978.174 424.186 979.227 422.431 992.567 404.879 1013.63 393.997 1037.5 393.997 1061.37 393.997 1082.08 404.879 1095.77 422.431 1097.18 424.186 1099.28 425.24 1101.39 425.24 1105.25 425.24 1108.41 422.08 1108.41 418.219 1108.41 416.815 1108.06 415.41 1107.01 414.006 1090.86 393.295 1065.93 379.604 1037.5 379.604 1009.07 379.604 984.142 393.295 967.994 414.006Z" stroke="#FF0000" stroke-width="3.51042" fill="#FF0000"/><path d="M1114.73 323.438C1114.73 335.07 1105.3 344.5 1093.67 344.5 1082.03 344.5 1072.6 335.07 1072.6 323.438 1072.6 311.805 1082.03 302.375 1093.67 302.375 1105.3 302.375 1114.73 311.805 1114.73 323.438Z" stroke="#FF0000" stroke-width="3.51042" fill="#FF0000"/><path d="M1002.4 323.438C1002.4 335.07 992.966 344.5 981.333 344.5 969.701 344.5 960.271 335.07 960.271 323.438 960.271 311.805 969.701 302.375 981.333 302.375 992.966 302.375 1002.4 311.805 1002.4 323.438Z" stroke="#FF0000" stroke-width="3.51042" fill="#FF0000"/><path d="M1037.5 225.146C1103.14 225.146 1156.85 278.855 1156.85 344.5 1156.85 410.145 1103.14 463.854 1037.5 463.854 971.855 463.854 918.146 410.145 918.146 344.5 918.146 278.855 971.855 225.146 1037.5 225.146M1037.5 211.104C963.781 211.104 904.104 270.781 904.104 344.5 904.104 418.219 963.781 477.896 1037.5 477.896 1111.22 477.896 1170.9 418.219 1170.9 344.5 1170.9 270.781 1111.22 211.104 1037.5 211.104L1037.5 211.104Z" stroke="#FF0000" stroke-width="3.51042" fill="#FF0000"/></g></svg>