<svg width="337" height="337" xmlns="http://www.w3.org/2000/svg" xmlns:xlink="http://www.w3.org/1999/xlink" xml:space="preserve" overflow="hidden"><defs><clipPath id="clip0"><rect x="74" y="176" width="337" height="337"/></clipPath></defs><g clip-path="url(#clip0)" transform="translate(-74 -176)"><path d="M207.396 323.438C207.396 335.07 197.966 344.5 186.333 344.5 174.701 344.5 165.271 335.07 165.271 323.438 165.271 311.805 174.701 302.375 186.333 302.375 197.966 302.375 207.396 311.805 207.396 323.438Z" stroke="#70AD47" stroke-width="3.51042" fill="#70AD47"/><path d="M319.729 323.438C319.729 335.07 310.299 344.5 298.667 344.5 287.034 344.5 277.604 335.07 277.604 323.438 277.604 311.805 287.034 302.375 298.667 302.375 310.299 302.375 319.729 311.805 319.729 323.438Z" stroke="#70AD47" stroke-width="3.51042" fill="#70AD47"/><path d="M306.39 390.135C303.932 390.135 301.826 391.189 300.773 392.944 287.433 410.496 266.371 421.378 242.5 421.378 218.629 421.378 197.918 410.496 184.227 392.944 182.823 391.189 180.717 390.135 178.61 390.135 174.749 390.135 171.59 393.295 171.59 397.156 171.59 398.56 171.941 399.965 172.994 401.369 189.142 422.431 214.066 435.771 242.5 435.771 270.934 435.771 295.858 422.431 312.006 401.369 312.708 400.316 313.41 398.911 313.41 397.156 313.41 393.295 310.251 390.135 306.39 390.135Z" stroke="#70AD47" stroke-width="3.51042" fill="#70AD47"/><path d="M242.5 225.146C308.145 225.146 361.854 278.855 361.854 344.5 361.854 410.145 308.145 463.854 242.5 463.854 176.855 463.854 123.146 410.145 123.146 344.5 123.146 278.855 176.855 225.146 242.5 225.146M242.5 211.104C168.781 211.104 109.104 270.781 109.104 344.5 109.104 418.219 168.781 477.896 242.5 477.896 316.219 477.896 375.896 418.219 375.896 344.5 375.896 270.781 316.219 211.104 242.5 211.104L242.5 211.104Z" stroke="#70AD47" stroke-width="3.51042" fill="#70AD47"/></g></svg>