<svg width="337" height="337" xmlns="http://www.w3.org/2000/svg" xmlns:xlink="http://www.w3.org/1999/xlink" xml:space="preserve" overflow="hidden"><defs><clipPath id="clip0"><rect x="471" y="176" width="337" height="337"/></clipPath></defs><g clip-path="url(#clip0)" transform="translate(-471 -176)"><path d="M639.63 225.146C705.547 225.146 758.984 278.582 758.984 344.5 758.984 410.418 705.547 463.854 639.63 463.854 573.712 463.854 520.276 410.418 520.276 344.5 520.351 278.614 573.744 225.221 639.63 225.146M639.63 211.104C565.957 211.104 506.234 270.828 506.234 344.5 506.234 418.172 565.957 477.896 639.63 477.896 713.302 477.896 773.026 418.172 773.026 344.5 773.026 270.828 713.302 211.104 639.63 211.104Z" stroke="#ED7D31" stroke-width="3.51042" fill="#ED7D31"/><path d="M699.307 386.625 579.953 386.625C576.075 386.625 572.932 383.482 572.932 379.604 572.932 375.727 576.075 372.583 579.953 372.583L699.307 372.583C703.185 372.583 706.328 375.727 706.328 379.604 706.328 383.482 703.185 386.625 699.307 386.625Z" stroke="#ED7D31" stroke-width="3.51042" fill="#ED7D31"/><path d="M572.932 316.417C572.932 312.539 576.075 309.396 579.953 309.396L615.057 309.396C618.935 309.396 622.078 312.539 622.078 316.417 622.078 320.294 618.935 323.438 615.057 323.438L579.953 323.438C576.075 323.438 572.932 320.294 572.932 316.417Z" stroke="#ED7D31" stroke-width="3.51042" fill="#ED7D31"/><path d="M699.307 323.438 664.203 323.438C660.325 323.438 657.182 320.294 657.182 316.417 657.182 312.539 660.325 309.396 664.203 309.396L699.307 309.396C703.185 309.396 706.328 312.539 706.328 316.417 706.328 320.294 703.185 323.438 699.307 323.438Z" stroke="#ED7D31" stroke-width="3.51042" fill="#ED7D31"/></g></svg>